<mxfile host="app.diagrams.net" agent="Mozilla/5.0 (Windows NT 10.0; Win64; x64; rv:134.0) Gecko/20100101 Firefox/134.0" version="26.0.11">
  <diagram id="R2lEEEUBdFMjLlhIrx00" name="Page-1">
    <mxGraphModel dx="2820" dy="1534" grid="1" gridSize="10" guides="1" tooltips="1" connect="1" arrows="1" fold="1" page="1" pageScale="1" pageWidth="850" pageHeight="1100" math="0" shadow="0" extFonts="Permanent Marker^https://fonts.googleapis.com/css?family=Permanent+Marker">
      <root>
        <mxCell id="0" />
        <mxCell id="1" parent="0" />
        <mxCell id="2" value="Usuarios" style="swimlane" vertex="1" parent="1">
          <mxGeometry x="50" y="50" width="180" height="180" as="geometry" />
        </mxCell>
        <mxCell id="3" value="id (PK) SERIAL" vertex="1" parent="2">
          <mxGeometry width="160" height="30" as="geometry" />
        </mxCell>
        <mxCell id="4" value="nombre VARCHAR(255)" vertex="1" parent="2">
          <mxGeometry width="160" height="30" as="geometry" />
        </mxCell>
        <mxCell id="5" value="correo VARCHAR(255) UNIQUE" vertex="1" parent="2">
          <mxGeometry width="160" height="30" as="geometry" />
        </mxCell>
        <mxCell id="6" value="contraseÃ±a TEXT" style="swimlane" vertex="1" parent="2">
          <mxGeometry x="300" y="50" width="160" height="140" as="geometry" />
        </mxCell>
        <mxCell id="7" value="telefono VARCHAR(20)" vertex="1" parent="2">
          <mxGeometry width="160" height="30" as="geometry" />
        </mxCell>
        <mxCell id="8" value="rol ENUM" vertex="1" parent="2">
          <mxGeometry width="160" height="30" as="geometry" />
        </mxCell>
        <mxCell id="9" value="fecha_registro TIMESTAMP" vertex="1" parent="2">
          <mxGeometry width="160" height="30" as="geometry" />
        </mxCell>
        <mxCell id="10" value="activo BOOLEAN" style="text" vertex="1" parent="2">
          <mxGeometry x="250" y="100" width="80" height="30" as="geometry" />
        </mxCell>
        <mxCell id="11" value="Perfiles" style="swimlane" vertex="1" parent="1">
          <mxGeometry x="300" y="50" width="180" height="140" as="geometry" />
        </mxCell>
        <mxCell id="12" value="id (PK) SERIAL" vertex="1" parent="11">
          <mxGeometry relative="1" as="geometry" />
        </mxCell>
        <mxCell id="13" value="usuario_id (FK) INT" vertex="1" parent="11" />
        <mxCell id="14" value="preferencias JSONB" vertex="1" parent="11" />
        <mxCell id="15" value="biografia TEXT" vertex="1" parent="11" />
        <mxCell id="16" value="foto_perfil VARCHAR(255)" vertex="1" parent="11" />
        <mxCell id="29" edge="1" parent="1" source="2" target="11">
          <mxGeometry relative="1" as="geometry" />
        </mxCell>
        <mxCell id="17" value="Oportunidades" style="swimlane" vertex="1" parent="1">
          <mxGeometry x="550" y="50" width="200" height="200" as="geometry" />
        </mxCell>
        <mxCell id="18" value="id (PK) SERIAL" vertex="1" parent="17" />
        <mxCell id="19" value="titulo VARCHAR(255)" vertex="1" parent="17" />
        <mxCell id="20" value="descripcion TEXT" vertex="1" parent="17" />
        <mxCell id="21" value="tipo ENUM" vertex="1" parent="17" />
        <mxCell id="22" value="sector ENUM" vertex="1" parent="17" />
        <mxCell id="23" value="ubicacion VARCHAR(255)" vertex="1" parent="17" />
        <mxCell id="24" value="requisitos TEXT" vertex="1" parent="17" />
        <mxCell id="25" value="beneficios TEXT" vertex="1" parent="17" />
        <mxCell id="26" value="fecha_publicacion TIMESTAMP" vertex="1" parent="17" />
        <mxCell id="27" value="fecha_vencimiento DATE" vertex="1" parent="17" />
        <mxCell id="28" value="institucion VARCHAR(255)" vertex="1" parent="17" />
        <mxCell id="30" value="Postulaciones" style="swimlane" vertex="1" parent="1">
          <mxGeometry x="300" y="250" width="180" height="140" as="geometry" />
        </mxCell>
        <mxCell id="31" value="id (PK) SERIAL" vertex="1" parent="30" />
        <mxCell id="32" value="usuario_id (FK) INT" vertex="1" parent="30" />
        <mxCell id="33" value="oportunidad_id (FK) INT" vertex="1" parent="30" />
        <mxCell id="34" value="estado ENUM" vertex="1" parent="30" />
        <mxCell id="35" value="fecha_postulacion TIMESTAMP" vertex="1" parent="30" />
        <mxCell id="36" edge="1" parent="1" source="2" target="30">
          <mxGeometry relative="1" as="geometry" />
        </mxCell>
        <mxCell id="37" edge="1" parent="1" source="17" target="30">
          <mxGeometry relative="1" as="geometry" />
        </mxCell>
        <mxCell id="38" value="Donaciones" style="swimlane" vertex="1" parent="1">
          <mxGeometry x="50" y="300" width="180" height="120" as="geometry" />
        </mxCell>
        <mxCell id="39" value="id (PK) SERIAL" vertex="1" parent="38" />
        <mxCell id="40" value="usuario_id (FK) INT" vertex="1" parent="38" />
        <mxCell id="41" value="monto DECIMAL(10,2)" vertex="1" parent="38" />
        <mxCell id="42" value="metodo_pago ENUM" vertex="1" parent="38" />
        <mxCell id="43" value="fecha_donacion TIMESTAMP" vertex="1" parent="38" />
        <mxCell id="44" edge="1" parent="1" source="2" target="38">
          <mxGeometry relative="1" as="geometry" />
        </mxCell>
      </root>
    </mxGraphModel>
  </diagram>
</mxfile>
